<svg enable-background="new 0 0 128 128" id="Слой_1" version="1.1" viewBox="0 0 128 128" xml:space="preserve" xmlns="http://www.w3.org/2000/svg" xmlns:xlink="http://www.w3.org/1999/xlink"><g><g><g><g><path d="M108.5,64c0,24.6-19.9,44.5-44.5,44.5S19.5,88.6,19.5,64c0-37.9,19.9-44.5,44.5-44.5      S108.5,39.4,108.5,64z" fill="#FFFFFF"/></g></g><g><g><path d="M64,111.5c-26.2,0-47.5-21.3-47.5-47.5c0-1.7,1.3-3,3-3s3,1.3,3,3c0,22.9,18.6,41.5,41.5,41.5      s41.5-18.6,41.5-41.5c0-1.7,1.3-3,3-3s3,1.3,3,3C111.5,90.2,90.2,111.5,64,111.5z" fill="#454B54"/></g></g><g><g><g><g><circle cx="64" cy="82.3" fill="#454B54" r="3.6"/></g></g><g><g><circle cx="51.4" cy="82.3" fill="#454B54" r="3.6"/></g></g><g><g><circle cx="76.6" cy="82.3" fill="#454B54" r="3.6"/></g></g></g><g><g><g><circle cx="64" cy="69.7" fill="#454B54" r="3.6"/></g></g><g><g><circle cx="64" cy="57.1" fill="#454B54" r="3.6"/></g></g><g><g><circle cx="51.4" cy="57.1" fill="#454B54" r="3.6"/></g></g><g><g><circle cx="51.4" cy="69.7" fill="#454B54" r="3.6"/></g></g><g><g><circle cx="76.6" cy="69.7" fill="#454B54" r="3.6"/></g></g><g><g><circle cx="76.6" cy="57.1" fill="#454B54" r="3.6"/></g></g></g></g></g><g><g><g><path d="M42.7,44.8c2.1-0.4,3.6-2.3,3.6-4.5l0-1.9l0-5.6c0-2.2,1.7-3.9,3.9-3.9l13.9,0l13.7,0      c2.2,0,3.9,1.7,3.9,3.9l0,5.6l0,1.9c0,2.2,1.5,4,3.6,4.5l22.2,4.5c2.6,0.5,5.1-1.3,5.4-3.9l0.1-0.6l0.9-12.3      c0.6-4.7-1.8-9.2-6-11.3c-8.4-4.3-24.6-10.4-43.8-10.4c-19.3,0-35.7,6.2-44,10.5c-4.2,2.1-6.6,11.7-6,16.4l0.9,7.3l0.1,0.6      c0.3,2.6,2.8,4.4,5.4,3.9L42.7,44.8z" fill="#E0E292"/></g></g><g><g><path d="M19.6,52.5L19.6,52.5c-3.8,0-7-2.8-7.5-6.6l-1-7.9c-0.7-5.1,1.7-16.4,7.6-19.4      C23.6,16,41.5,7.8,64.1,7.7h0.2c21.7,0,38.7,7.5,45,10.7c5.3,2.7,8.3,8.4,7.6,14.3L116,44.9c0,0,0,0.1,0,0.1l-0.1,0.6      c-0.5,3.8-3.7,6.6-7.5,6.6c-0.5,0-1-0.1-1.5-0.2l-22.2-4.5c-3.5-0.7-6-3.8-6.1-7.4l0-7.5c0-0.5-0.4-0.9-0.9-0.9l-27.5,0.1      c-0.5,0-0.9,0.4-0.9,0.9l0,7.5c0,3.6-2.5,6.7-6,7.4l-22.2,4.6C20.6,52.4,20.1,52.5,19.6,52.5z M64.2,13.7h-0.2      c-21.3,0-38,7.8-42.7,10.2c-2.6,1.3-4.9,9.3-4.4,13.3l1,7.9c0.1,0.8,0.8,1.4,1.5,1.4l0,0c0.1,0,0.2,0,0.3,0l22.2-4.6      c0.7-0.1,1.2-0.8,1.2-1.5l0-7.5c0-3.8,3.1-6.9,6.9-6.9l27.5-0.1c3.8,0,6.9,3.1,6.9,6.9l0,7.5c0,0.7,0.5,1.4,1.2,1.5l22.2,4.5      c0.9,0.2,1.7-0.4,1.8-1.3l0.1-0.6l0.9-12.2c0,0,0-0.1,0-0.1c0.4-3.4-1.3-6.7-4.4-8.3C100.6,20.7,84.6,13.7,64.2,13.7z" fill="#454B54"/></g></g></g></g></svg>